# xmcd CD database file
#
# Track frame offsets:
#	150
#	21230
#	39309
#	57290
#	75531
#	91419
#	110756
#	131074
#	149858
#	166019
#	183048
#	201135
#	219028
#	242432
#
# Disc length: 3554 seconds
#
# Revision: 4
# Processed by: cddbd v1.5.1PL0 Copyright (c) Steve Scherf et al.
# Submitted via: CDex 1.40Beta6
#
DISCID=b80de00e
DTITLE=Joss Stone - Mind, Body And Soul
DYEAR=2004
DGENRE=Jazz
TTITLE0=Right To Be Wrong
TTITLE1=Jet Lag
TTITLE2=You Had Me
TTITLE3=Spoiled
TTITLE4=Dont Cha Wanna Ride
TTITLE5=Less It Moe
TTITLE6=Security
TTITLE7=Young At Heart
TTITLE8=Snakes And Ladders
TTITLE9=Understand
TTITLE10=Dont Know How
TTITLE11=Torn And Tattered
TTITLE12=Killing Time
TTITLE13=Sleep Like A Child
EXTD=
EXTT0=
EXTT1=
EXTT2=
EXTT3=
EXTT4=
EXTT5=
EXTT6=
EXTT7=
EXTT8=
EXTT9=
EXTT10=
EXTT11=
EXTT12=
EXTT13=
PLAYORDER=
